<svg width="21" height="24" viewBox="0 0 21 24" fill="none" xmlns="http://www.w3.org/2000/svg">
<path d="M6.23897 3.39529C6.53187 3.1024 7.00674 3.1024 7.29963 3.3953L12.0726 8.16831C12.3655 8.4612 12.3655 8.93608 12.0726 9.22897C11.7797 9.52186 11.3048 9.52185 11.0119 9.22896L6.76929 4.98629L2.52662 9.22889C2.23372 9.52179 1.75885 9.52178 1.46596 9.22889C1.17306 8.93599 1.17307 8.46112 1.46596 8.16823L6.23897 3.39529ZM19.9902 19.206C15.9929 19.6763 13.0794 19.6304 10.9703 19.092C8.81976 18.543 7.47494 17.4708 6.71255 15.926C5.97952 14.4406 5.83123 12.6031 5.8398 10.6193C5.84412 9.61749 5.88971 8.54448 5.9333 7.4307C5.9771 6.3116 6.01929 5.14309 6.0193 3.92562L7.5193 3.92563C7.51929 5.17521 7.47598 6.36957 7.43215 7.48936C7.38812 8.61446 7.34397 9.65636 7.33978 10.6257C7.33133 12.5841 7.49097 14.1138 8.05767 15.2622C8.59501 16.351 9.54172 17.1792 11.3414 17.6386C13.1825 18.1086 15.8779 18.1795 19.815 17.7163L19.9902 19.206Z" fill="white" fill-opacity="0.9"/>
</svg>
