<svg width="65" height="65" viewBox="0 0 65 65" fill="none" xmlns="http://www.w3.org/2000/svg">
<circle cx="32.5" cy="32.5" r="32.5" fill="white" fill-opacity="0.72"/>
<g clip-path="url(#clip0)">
<path d="M48.8356 23.0179C48.1369 22.286 47.1721 21.8535 46.0741 21.8535H40.5513V21.7869C40.5513 20.9552 40.2186 20.1567 39.653 19.6244C39.0875 19.0588 38.3222 18.7261 37.4905 18.7261H27.5095C26.6445 18.7261 25.8793 19.0588 25.3137 19.6244C24.7481 20.19 24.4154 20.9552 24.4154 21.7869V21.8535H18.9259C17.8279 21.8535 16.8631 22.286 16.1644 23.0179C15.4658 23.7166 15 24.7147 15 25.7793V42.3477C15 43.4457 15.4325 44.4105 16.1644 45.1092C16.8631 45.8078 17.8612 46.2736 18.9259 46.2736H46.0741C47.1721 46.2736 48.1369 45.8411 48.8356 45.1092C49.5342 44.4105 50 43.4124 50 42.3477V25.7793C50 24.6814 49.5675 23.7166 48.8356 23.0179ZM48.27 42.3477H48.2367C48.2367 42.9466 48.0038 43.4789 47.6046 43.8782C47.2053 44.2774 46.673 44.5103 46.0741 44.5103H18.9259C18.327 44.5103 17.7947 44.2774 17.3954 43.8782C16.9962 43.4789 16.7633 42.9466 16.7633 42.3477V25.7793C16.7633 25.1804 16.9962 24.6481 17.3954 24.2489C17.7947 23.8496 18.327 23.6168 18.9259 23.6168H25.347C25.846 23.6168 26.2452 23.2175 26.2452 22.7185V21.7536C26.2452 21.3877 26.3783 21.055 26.6112 20.8221C26.8441 20.5892 27.1768 20.4561 27.5428 20.4561H37.4905C37.8565 20.4561 38.1892 20.5892 38.4221 20.8221C38.6549 21.055 38.788 21.3877 38.788 21.7536V22.7185C38.788 23.2175 39.1873 23.6168 39.6863 23.6168H46.1074C46.7063 23.6168 47.2386 23.8496 47.6378 24.2489C48.0371 24.6481 48.27 25.1804 48.27 25.7793V42.3477Z" fill="black"/>
<path d="M32.5 25.8789C30.2377 25.8789 28.1749 26.8105 26.7111 28.2743C25.2139 29.7715 24.3156 31.801 24.3156 34.0633C24.3156 36.3257 25.2472 38.3884 26.7111 39.8523C28.2082 41.3494 30.2377 42.2477 32.5 42.2477C34.7624 42.2477 36.8251 41.3162 38.289 39.8523C39.7861 38.3551 40.6844 36.3257 40.6844 34.0633C40.6844 31.801 39.7529 29.7382 38.289 28.2743C36.8251 26.8105 34.7624 25.8789 32.5 25.8789ZM37.0247 38.6213C35.8603 39.7525 34.2633 40.4844 32.5 40.4844C30.7367 40.4844 29.1398 39.7525 27.9753 38.6213C26.8109 37.4569 26.1122 35.8599 26.1122 34.0966C26.1122 32.3333 26.8441 30.7363 27.9753 29.5719C29.1398 28.4074 30.7367 27.7088 32.5 27.7088C34.2633 27.7088 35.8603 28.4407 37.0247 29.5719C38.1892 30.7363 38.8879 32.3333 38.8879 34.0966C38.9211 35.8599 38.1892 37.4569 37.0247 38.6213Z" fill="black"/>
<path d="M44.3441 29.1062C45.2444 29.1062 45.9743 28.3763 45.9743 27.4759C45.9743 26.5756 45.2444 25.8457 44.3441 25.8457C43.4437 25.8457 42.7139 26.5756 42.7139 27.4759C42.7139 28.3763 43.4437 29.1062 44.3441 29.1062Z" fill="black"/>
</g>
<defs>
<clipPath id="clip0">
<rect width="35" height="35" fill="white" transform="translate(15 15)"/>
</clipPath>
</defs>
</svg>
