<svg width="52" height="52" viewBox="0 0 52 52" fill="none" xmlns="http://www.w3.org/2000/svg">
<circle cx="25.9252" cy="26.1176" r="25.8021" fill="#E2E2E2"/>
<path d="M25.1605 31.9744C25.2609 32.0807 25.3802 32.165 25.5114 32.2225C25.6426 32.28 25.7833 32.3096 25.9253 32.3096C26.0674 32.3096 26.208 32.28 26.3392 32.2225C26.4705 32.165 26.5897 32.0807 26.6901 31.9744L30.769 27.6592C30.9718 27.4446 31.0857 27.1535 31.0857 26.85C31.0857 26.5466 30.9718 26.2555 30.769 26.0409C30.5661 25.8263 30.291 25.7058 30.0042 25.7058C29.7173 25.7058 29.4422 25.8263 29.2394 26.0409L27.0069 28.4028V15.9084C27.0069 15.605 26.8929 15.3139 26.6901 15.0993C26.4873 14.8847 26.2122 14.7642 25.9253 14.7642C25.6385 14.7642 25.3634 14.8847 25.1605 15.0993C24.9577 15.3139 24.8437 15.605 24.8437 15.9084V28.4028L22.6112 26.0409C22.4084 25.8263 22.1333 25.7058 21.8465 25.7058C21.5596 25.7058 21.2845 25.8263 21.0817 26.0409C20.8788 26.2555 20.7649 26.5466 20.7649 26.85C20.7649 27.1535 20.8788 27.4446 21.0817 27.6592L25.1605 31.9744Z" fill="black"/>
<path d="M36.1037 25.085C35.7922 25.085 35.4935 25.2073 35.2733 25.425C35.053 25.6428 34.9293 25.9381 34.9293 26.2461V35.1478H16.9212V26.2461C16.9212 25.9381 16.7974 25.6428 16.5772 25.425C16.3569 25.2073 16.0582 25.085 15.7467 25.085C15.4352 25.085 15.1365 25.2073 14.9163 25.425C14.696 25.6428 14.5723 25.9381 14.5723 26.2461V35.5348C14.5723 36.0481 14.7785 36.5403 15.1456 36.9032C15.5127 37.2661 16.0105 37.47 16.5297 37.47H35.3207C35.8399 37.47 36.3378 37.2661 36.7048 36.9032C37.0719 36.5403 37.2781 36.0481 37.2781 35.5348V26.2461C37.2781 25.9381 37.1544 25.6428 36.9342 25.425C36.7139 25.2073 36.4152 25.085 36.1037 25.085Z" fill="black"/>
</svg>
