<svg width="53" height="52" viewBox="0 0 53 52" fill="none" xmlns="http://www.w3.org/2000/svg">
<circle cx="26.7433" cy="26.1176" r="25.8021" fill="#E2E2E2"/>
<path d="M37.4155 15.8867H17.103C15.7847 15.8867 14.7593 16.9609 14.7593 18.2305V32.293C14.7593 33.6113 15.7847 34.6367 17.103 34.6367H37.4155C38.6851 34.6367 39.7593 33.6113 39.7593 32.293V18.2305C39.7593 16.9609 38.6851 15.8867 37.4155 15.8867ZM37.4155 18.2305V20.2324C36.2925 21.1602 34.5347 22.5273 30.8237 25.457C29.9937 26.0918 28.3823 27.6543 27.2593 27.6055C26.0874 27.6543 24.4761 26.0918 23.646 25.457C19.9351 22.5273 18.1772 21.1602 17.103 20.2324V18.2305H37.4155ZM17.103 32.293V23.2598C18.1772 24.1387 19.7886 25.4082 22.1812 27.3125C23.2554 28.1426 25.1597 29.998 27.2593 29.9492C29.3101 29.998 31.1655 28.1426 32.2886 27.3125C34.6812 25.4082 36.2925 24.1387 37.4155 23.2598V32.293H17.103Z" fill="black"/>
</svg>
