<svg width="100%" height="100%" viewBox="0 0 428 174" version="1.1" xmlns="http://www.w3.org/2000/svg" xmlns:xlink="http://www.w3.org/1999/xlink" xml:space="preserve" xmlns:serif="http://www.serif.com/" style="fill-rule:evenodd;clip-rule:evenodd;stroke-linecap:round;stroke-linejoin:round;stroke-miterlimit:1.5;">
    <g transform="matrix(1,0,0,1,-1268.82,-663.152)">
        <g transform="matrix(1,0,0,1,269.846,222.239)">
            <g transform="matrix(0.897795,-0.440413,-0.440413,-0.897795,296.486,1563.85)">
                <path d="M1058.46,538.946L1112.63,532.616L1163.21,524.46L1207.58,514.667L1239.13,507.318L1262.2,500.509L1287,493.529L1299.47,488.729L1314.7,480.323L1327.97,472.148L1339.59,464.892L1350.34,460.278L1364.33,455.914L1376.34,454.585L1389.27,453.846L1403.25,450.582L1413.18,446.609L1428.34,438.846L1430.03,443.526C1429.9,447.416 1429.21,451.101 1426.46,454.035L1418.54,461.792L1408.13,470.201L1412.48,470.839L1426.75,471.661L1439.12,470.43L1454.42,471.934L1466.23,472.182L1475.95,473.323L1487.07,475.236L1492.01,479.295C1493.36,480.167 1492.95,481.64 1491.66,483.418L1483.07,487.697L1468.13,488.53L1469.32,494.29L1468.49,501.37L1463.4,506.055L1457.01,508.283L1450.89,511.059L1451.42,517.063L1448.7,523.899L1441.78,528.323L1434.29,531.937L1431.59,534.993L1430.15,544.951L1425.15,550.508L1413.69,553.827L1401.41,556.833L1390.13,557.564L1371.27,557.534L1352.02,556.118L1340.16,553.342L1322.94,550.178L1311.63,550.215L1295.24,554.417L1276.81,559.836L1259.36,565.14L1239.74,572.139L1220.25,579.11L1202.97,588.753L1187.03,597.279L1171.79,605.722L1156.29,615.655L1142.71,624.527L1131.08,633.64L1121.8,640.282L1112,649.287C1083.46,622.919 1061.2,574.2 1058.46,538.946Z" style="fill:white;fill-opacity:0.5;"/>
                <g>
                    <g transform="matrix(1.82659,0,0,1.82659,-868.275,-413.957)">
                        <path d="M1054.84,521.916C1069.18,522.775 1142.73,507.993 1151.02,505.021C1157.5,502.697 1178.53,498.657 1189.68,492.54C1204.4,484.463 1205.94,481.417 1218.46,477.648C1230.97,473.88 1236.53,476.115 1245.33,473.179C1252.78,470.691 1255.1,466.835 1257.49,467.004C1258.21,468.217 1258.41,469.543 1257.84,471.557C1259.31,472.898 1255.02,477.51 1250.63,480.815C1247.1,483.469 1245.7,484.287 1243.43,484.718" style="fill:none;stroke:white;stroke-width:1.09px;"/>
                    </g>
                    <g transform="matrix(1.82659,0,0,1.82659,-868.275,-413.957)">
                        <path d="M1230.33,486.867C1232.19,486.45 1241.57,484.317 1249.58,484.518C1259.47,484.767 1270.13,485.096 1274.51,485.023C1278.89,484.95 1283.85,485.876 1285.21,486.029C1295.06,487.133 1295.47,492.7 1285.33,493.875C1276.67,494.879 1268.89,495.15 1264.66,496.227C1258.13,497.886 1248.6,496.662 1247.96,496.579" style="fill:none;stroke:white;stroke-width:1.09px;"/>
                    </g>
                    <g transform="matrix(1.82659,0,0,1.82659,-868.275,-413.957)">
                        <path d="M1257.61,471.902C1257.61,471.902 1252.37,478.1 1249.19,475.937C1247.14,474.544 1247.16,472.876 1247.16,472.876" style="fill:none;stroke:white;stroke-width:1.09px;"/>
                    </g>
                    <g transform="matrix(1.82659,0,0,1.82659,-868.275,-413.957)">
                        <path d="M1286.69,486.268C1286.69,486.268 1281.46,485.839 1281.04,488.203C1280.86,489.246 1280.85,490.532 1281.05,491.711C1281.27,492.98 1285.17,493.685 1286.85,493.629" style="fill:none;stroke:white;stroke-width:1.09px;"/>
                    </g>
                    <g transform="matrix(1.82659,0,0,1.82659,-868.275,-413.957)">
                        <path d="M1259.79,519.006C1259.79,519.006 1259.33,526.176 1255.93,527.859C1252.54,529.541 1240.93,532.286 1238.2,532.239C1235.47,532.193 1223.73,532.692 1217.3,531.877C1213.88,531.445 1202.89,528.248 1195.98,527.758C1189.06,527.267 1149.14,541.185 1140.64,545.45C1124.9,553.349 1098.7,568.391 1084.24,582.258" style="fill:none;stroke:white;stroke-width:1.09px;"/>
                    </g>
                    <g transform="matrix(1.82659,0,0,1.82659,-868.275,-413.957)">
                        <path d="M1279.06,495.062C1279.06,495.062 1281.89,498.879 1278.31,502.212C1274.73,505.545 1266.96,506.77 1263.84,507.755C1260.7,508.74 1248.01,509.398 1244.86,509.697" style="fill:none;stroke:white;stroke-width:1.09px;"/>
                    </g>
                    <g transform="matrix(1.82659,0,0,1.82659,-868.275,-413.957)">
                        <path d="M1269.47,507.152C1269.47,507.152 1271.17,511.019 1268.8,513.256C1265.74,516.15 1262.92,516.717 1260.82,517.791C1258.72,518.864 1250.11,520.413 1248.03,520.471" style="fill:none;stroke:white;stroke-width:1.09px;"/>
                    </g>
                </g>
            </g>
        </g>
    </g>
</svg>
