<svg width="32" height="32" viewBox="0 0 32 32" fill="none" xmlns="http://www.w3.org/2000/svg">
<circle cx="16" cy="16" r="15" stroke="white" stroke-opacity="0.9" stroke-width="2"/>
<path d="M15.1797 11.6177H16.8203V24.1333H15.1797V11.6177ZM16 9.34424C15.6406 9.34424 15.3594 9.24268 15.1562 9.03955C14.9531 8.8208 14.8516 8.51611 14.8516 8.12549C14.8516 7.73486 14.9531 7.43018 15.1562 7.21143C15.3594 6.99268 15.6406 6.8833 16 6.8833C16.3594 6.8833 16.6406 6.99268 16.8438 7.21143C17.0469 7.41455 17.1484 7.71143 17.1484 8.10205C17.1484 8.49268 17.0469 8.79736 16.8438 9.01611C16.6406 9.23486 16.3594 9.34424 16 9.34424Z" fill="white" fill-opacity="0.9"/>
</svg>
