<svg width="53" height="52" viewBox="0 0 53 52" fill="none" xmlns="http://www.w3.org/2000/svg">
<circle cx="26.3798" cy="26.1176" r="25.8021" fill="#E2E2E2"/>
<path d="M25.8638 20.0469C22.6138 20.0469 20.0239 22.6875 20.0239 25.8867C20.0239 29.1367 22.6138 31.7266 25.8638 31.7266C29.063 31.7266 31.7036 29.1367 31.7036 25.8867C31.7036 22.6875 29.063 20.0469 25.8638 20.0469ZM25.8638 29.6953C23.7817 29.6953 22.0552 28.0195 22.0552 25.8867C22.0552 23.8047 23.731 22.1289 25.8638 22.1289C27.9458 22.1289 29.6216 23.8047 29.6216 25.8867C29.6216 28.0195 27.9458 29.6953 25.8638 29.6953ZM33.2778 19.8438C33.2778 19.082 32.6685 18.4727 31.9067 18.4727C31.145 18.4727 30.5356 19.082 30.5356 19.8438C30.5356 20.6055 31.145 21.2148 31.9067 21.2148C32.6685 21.2148 33.2778 20.6055 33.2778 19.8438ZM37.1372 21.2148C37.0356 19.3867 36.6294 17.7617 35.3091 16.4414C33.9888 15.1211 32.3638 14.7148 30.5356 14.6133C28.6567 14.5117 23.02 14.5117 21.1411 14.6133C19.313 14.7148 17.7388 15.1211 16.3677 16.4414C15.0474 17.7617 14.6411 19.3867 14.5396 21.2148C14.438 23.0938 14.438 28.7305 14.5396 30.6094C14.6411 32.4375 15.0474 34.0117 16.3677 35.3828C17.7388 36.7031 19.313 37.1094 21.1411 37.2109C23.02 37.3125 28.6567 37.3125 30.5356 37.2109C32.3638 37.1094 33.9888 36.7031 35.3091 35.3828C36.6294 34.0117 37.0356 32.4375 37.1372 30.6094C37.2388 28.7305 37.2388 23.0938 37.1372 21.2148ZM34.6997 32.5898C34.3442 33.6055 33.5317 34.3672 32.5669 34.7734C31.0435 35.3828 27.4888 35.2305 25.8638 35.2305C24.188 35.2305 20.6333 35.3828 19.1606 34.7734C18.145 34.3672 17.3833 33.6055 16.9771 32.5898C16.3677 31.1172 16.52 27.5625 16.52 25.8867C16.52 24.2617 16.3677 20.707 16.9771 19.1836C17.3833 18.2188 18.145 17.457 19.1606 17.0508C20.6333 16.4414 24.188 16.5938 25.8638 16.5938C27.4888 16.5938 31.0435 16.4414 32.5669 17.0508C33.5317 17.4062 34.2935 18.2188 34.6997 19.1836C35.3091 20.707 35.1567 24.2617 35.1567 25.8867C35.1567 27.5625 35.3091 31.1172 34.6997 32.5898Z" fill="black"/>
</svg>
