<svg width="16" height="16" viewBox="0 0 16 16" fill="none" xmlns="http://www.w3.org/2000/svg">
<path d="M2.3459 0H0.471432C0.212651 0 0.00283813 0.209813 0.00283813 0.468625V2.37434C0.00283813 2.63316 0.212619 2.84297 0.471463 2.84297C0.730276 2.84297 0.940088 2.63316 0.940088 2.37434V0.93725H2.34593C2.60474 0.93725 2.81456 0.727437 2.81456 0.468625C2.81453 0.209813 2.60471 0 2.3459 0Z" fill="black"/>
<path d="M15.5291 0H13.6547C13.3958 0 13.186 0.209813 13.186 0.468625C13.186 0.727437 13.3958 0.93725 13.6547 0.93725H15.0605V2.37434C15.0605 2.63316 15.2703 2.84297 15.5291 2.84297C15.7879 2.84297 15.9978 2.63316 15.9978 2.37434V0.468625C15.9978 0.209813 15.7879 0 15.5291 0Z" fill="black"/>
<path d="M2.34535 15.0581H0.939508V13.621C0.939508 13.3622 0.729696 13.1523 0.470883 13.1523C0.212071 13.1523 0.0022583 13.3622 0.0022583 13.621V15.5267C0.0022583 15.7855 0.21204 15.9953 0.470883 15.9953H2.34535C2.60416 15.9953 2.81398 15.7855 2.81398 15.5267C2.81398 15.2679 2.60416 15.0581 2.34535 15.0581Z" fill="black"/>
<path d="M15.5291 13.1523C15.2703 13.1523 15.0605 13.3622 15.0605 13.621V15.0581H13.6547C13.3958 15.0581 13.186 15.2679 13.186 15.5267C13.186 15.7855 13.3958 15.9953 13.6547 15.9953H15.5291C15.7879 15.9953 15.9978 15.7855 15.9978 15.5267V13.621C15.9978 13.3622 15.7879 13.1523 15.5291 13.1523Z" fill="black"/>
<path d="M14.7616 3.84446L8.23489 0.0631407C8.08961 -0.0210469 7.91033 -0.0210469 7.76505 0.0631407L1.23573 3.84442C1.0918 3.92783 1.00195 4.08311 1.00195 4.24961C1.00195 4.25055 1.00205 4.25149 1.00205 4.25239V11.75C1.00205 11.9181 1.09339 12.0754 1.24048 12.1582L7.76508 15.9369C7.83536 15.9776 7.91899 16 8.00002 16C8.08461 16 8.16727 15.9761 8.23496 15.9369L14.7569 12.1582C14.758 12.1576 14.7591 12.157 14.7601 12.1563C14.9113 12.0473 14.9928 11.9556 14.9951 11.7557C14.9951 11.7538 14.9952 11.752 14.9952 11.7501V4.25245C14.9952 4.25152 14.9953 4.25058 14.9953 4.24967C14.9953 4.08302 14.9054 3.92771 14.7616 3.84446ZM7.53136 14.7183L2.4118 11.7521L6.35864 9.48874C6.58318 9.35999 6.6608 9.07361 6.53202 8.84911C6.4033 8.62458 6.11693 8.54699 5.89239 8.67574L1.9392 10.9411V5.05964L7.53136 8.27121V14.7183ZM7.99999 7.45955L2.41111 4.24827L7.99999 1.0102L13.5889 4.24827L7.99999 7.45955ZM14.0611 10.9411L10.1076 8.67571C9.88308 8.54699 9.59671 8.62455 9.46796 8.84908C9.33918 9.07361 9.4168 9.35996 9.64133 9.48871L13.5882 11.7521L8.46858 14.7182V8.27121L14.061 5.05964V10.9411H14.0611Z" fill="black"/>
<path d="M8 0.5L1.5 4.5L8 8L14.5 4L8 0.5Z" stroke="black" stroke-linejoin="round"/>
</svg>
